<svg width="8" height="8" viewBox="0 0 8 8" fill="none" xmlns="http://www.w3.org/2000/svg">
<g clip-path="url(#clip0_1_160)">
<path d="M3.97528 2.42021C3.04962 2.42021 2.30298 3.163 2.30298 4.0839C2.30298 5.00479 3.04962 5.74758 3.97528 5.74758C4.90094 5.74758 5.64758 5.00479 5.64758 4.0839C5.64758 3.163 4.90094 2.42021 3.97528 2.42021ZM3.97528 5.16551C3.37709 5.16551 2.88806 4.68045 2.88806 4.0839C2.88806 3.48734 3.37564 3.00228 3.97528 3.00228C4.57492 3.00228 5.0625 3.48734 5.0625 4.0839C5.0625 4.68045 4.57347 5.16551 3.97528 5.16551ZM6.10605 2.35216C6.10605 2.5679 5.9314 2.7402 5.71599 2.7402C5.49913 2.7402 5.32593 2.56645 5.32593 2.35216C5.32593 2.13786 5.50058 1.96411 5.71599 1.96411C5.9314 1.96411 6.10605 2.13786 6.10605 2.35216ZM7.21364 2.746C7.1889 2.22618 7.06955 1.76574 6.68677 1.38638C6.30544 1.00702 5.84261 0.888285 5.32011 0.862222C4.7816 0.831815 3.16751 0.831815 2.62899 0.862222C2.10795 0.886837 1.64512 1.00557 1.26233 1.38493C0.879552 1.76429 0.761661 2.22474 0.735463 2.74455C0.704899 3.28029 0.704899 4.88606 0.735463 5.4218C0.760205 5.94161 0.879552 6.40205 1.26233 6.78141C1.64512 7.16078 2.10649 7.27951 2.62899 7.30557C3.16751 7.33598 4.7816 7.33598 5.32011 7.30557C5.84261 7.28096 6.30544 7.16222 6.68677 6.78141C7.0681 6.40205 7.18744 5.94161 7.21364 5.4218C7.24421 4.88606 7.24421 3.28174 7.21364 2.746ZM6.51794 5.99663C6.40441 6.28043 6.18464 6.49907 5.89792 6.61345C5.46856 6.78286 4.44975 6.74377 3.97528 6.74377C3.50081 6.74377 2.48054 6.78141 2.05264 6.61345C1.76737 6.50051 1.5476 6.28187 1.43262 5.99663C1.26233 5.56949 1.30163 4.55593 1.30163 4.0839C1.30163 3.61187 1.26379 2.59686 1.43262 2.17116C1.54614 1.88737 1.76592 1.66873 2.05264 1.55434C2.48199 1.38493 3.50081 1.42402 3.97528 1.42402C4.44975 1.42402 5.47002 1.38638 5.89792 1.55434C6.18319 1.66728 6.40296 1.88592 6.51794 2.17116C6.68823 2.59831 6.64893 3.61187 6.64893 4.0839C6.64893 4.55593 6.68823 5.57093 6.51794 5.99663Z" fill="white"/>
</g>
<defs>
<clipPath id="clip0_1_160">
<rect width="6.58976" height="7.41348" fill="white" transform="translate(0.731049 0.378418)"/>
</clipPath>
</defs>
</svg>
