<svg width="8" height="7" viewBox="0 0 8 7" fill="none" xmlns="http://www.w3.org/2000/svg">
<g clip-path="url(#clip0_1_155)">
<path d="M2.42487 6.96806V2.79984H1.02694V6.96806H2.42487ZM1.72608 2.2304C2.21357 2.2304 2.517 1.91033 2.517 1.51035C2.50792 1.10135 2.21358 0.790161 1.73533 0.790161C1.25716 0.790161 0.944458 1.10135 0.944458 1.51035C0.944458 1.91035 1.24782 2.2304 1.71696 2.2304H1.72604H1.72608ZM3.19862 6.96806H4.59655V4.64032C4.59655 4.51575 4.60563 4.3913 4.64255 4.30225C4.74361 4.05334 4.97362 3.79555 5.35979 3.79555C5.86564 3.79555 6.06801 4.17779 6.06801 4.73813V6.96803H7.46586V4.57801C7.46586 3.2977 6.77619 2.70199 5.85644 2.70199C5.10231 2.70199 4.7712 3.11975 4.58725 3.40428H4.59658V2.79976H3.19865C3.21699 3.19088 3.19865 6.96798 3.19865 6.96798L3.19862 6.96806Z" fill="white"/>
</g>
<defs>
<clipPath id="clip0_1_155">
<rect width="6.58976" height="6.1779" fill="white" transform="translate(0.961731 0.790405)"/>
</clipPath>
</defs>
</svg>
