<svg width="9" height="6" viewBox="0 0 9 6" fill="none" xmlns="http://www.w3.org/2000/svg">
<g clip-path="url(#clip0_1_150)">
<path d="M8.10314 0.904613C7.82845 1.02178 7.5371 1.09868 7.23876 1.13277C7.54951 0.953445 7.78812 0.669474 7.90047 0.331127C7.60506 0.49991 7.28186 0.618829 6.94483 0.682745C6.67029 0.401147 6.27919 0.225159 5.84632 0.225159C5.01518 0.225159 4.34132 0.873934 4.34132 1.67412C4.34132 1.7877 4.35464 1.89827 4.38029 2.00435C3.12954 1.94391 2.02063 1.36705 1.27834 0.490396C1.14883 0.704402 1.07461 0.953334 1.07461 1.21885C1.07461 1.72157 1.34032 2.16506 1.74412 2.42491C1.50513 2.41771 1.2714 2.35556 1.06244 2.24366C1.06235 2.24973 1.06235 2.2558 1.06235 2.26189C1.06235 2.96394 1.5811 3.54959 2.26955 3.68271C2.04793 3.74074 1.81547 3.74923 1.58993 3.70754C1.78142 4.28321 2.33723 4.70211 2.99575 4.71384C2.4807 5.10245 1.83177 5.33411 1.12671 5.33411C1.00521 5.33411 0.88544 5.32724 0.7677 5.31386C1.43371 5.72499 2.22476 5.96487 3.07464 5.96487C5.84282 5.96487 7.35653 3.75692 7.35653 1.84216C7.35653 1.77931 7.3551 1.71682 7.35217 1.65469C7.6468 1.44962 7.9011 1.19562 8.10314 0.904613Z" fill="white"/>
</g>
<defs>
<clipPath id="clip0_1_150">
<rect width="7.41348" height="5.76604" fill="white" transform="translate(0.78067 0.202393)"/>
</clipPath>
</defs>
</svg>
